<?xml version="1.0" encoding="UTF-8"?> <svg xmlns="http://www.w3.org/2000/svg" width="764" height="179" viewBox="0 0 764 179" fill="none"><path d="M113.628 176.202H25.7557C11.5312 176.202 0 164.671 0 150.446V50.4521C0 36.2275 11.5312 24.6961 25.7557 24.6961H151.504L113.628 176.202Z" fill="#006DA8"></path><path d="M114.295 0H202.168C216.392 0 227.923 11.5314 227.923 25.7561V125.75C227.923 139.975 216.392 151.506 202.168 151.506H76.4193L114.295 0Z" fill="#9F73FF"></path><path d="M114.295 0H202.168C216.392 0 227.923 11.5314 227.923 25.7561V125.75C227.923 139.975 216.392 151.506 202.168 151.506H76.4193L114.295 0Z" fill="url(#paint0_linear_641_567)"></path><path d="M279.575 25.8741H298.114L325.49 115.332L354.375 25.8741H370.758L398.134 115.332L426.804 25.8741H444.696L408.05 135.811H388.65L362.136 54.1127L334.544 135.811L315.143 136.026L279.575 25.8741Z" fill="#2B2B2B"></path><path d="M559.715 25.8741V135.811H544.41L542.039 118.135C532.841 130.781 520.267 137.104 504.315 137.104C494.112 137.104 484.987 134.876 476.939 130.422C469.035 125.967 462.784 119.5 458.185 111.021C453.73 102.542 451.503 92.4827 451.503 80.8423C451.503 69.7768 453.73 60.0047 458.185 51.526C462.784 43.0472 469.107 36.4366 477.155 31.6943C485.202 26.9519 494.256 24.5807 504.315 24.5807C513.082 24.5807 520.626 26.2334 526.949 29.5387C533.272 32.8439 538.302 37.3707 542.039 43.1191L544.41 25.8741H559.715ZM506.04 121.368C513.082 121.368 519.333 119.715 524.794 116.41C530.398 112.961 534.71 108.219 537.727 102.183C540.745 96.0035 542.254 89.0337 542.254 81.2735C542.254 73.3695 540.745 66.3279 537.727 60.1484C534.71 53.8253 530.398 48.9392 524.794 45.4902C519.333 42.0412 513.082 40.3168 506.04 40.3168C495.118 40.3168 486.28 44.125 479.526 51.7415C472.915 59.2143 469.61 68.9146 469.61 80.8423C469.61 92.7701 472.915 102.542 479.526 110.159C486.28 117.632 495.118 121.368 506.04 121.368Z" fill="#2B2B2B"></path><path d="M639.624 25.8741V43.1191H630.786C620.295 43.1191 612.751 46.6399 608.152 53.6816C603.697 60.7233 601.47 69.4176 601.47 79.7645V135.811H583.794V25.8741H599.099L601.47 42.4724C604.631 37.4426 608.727 33.4188 613.757 30.4009C618.786 27.383 625.756 25.8741 634.666 25.8741H639.624Z" fill="#2B2B2B"></path><path d="M711.187 24.5807C721.391 24.5807 730.444 26.8082 738.348 31.2632C746.396 35.7181 752.647 42.185 757.102 50.6637C761.701 59.1425 764 69.202 764 80.8423C764 91.9079 761.701 101.68 757.102 110.159C752.647 118.638 746.396 125.248 738.348 129.99C730.3 134.733 721.247 137.104 711.187 137.104C702.277 137.104 694.661 135.523 688.338 132.362C682.015 129.056 677.057 124.601 673.464 118.997V178.923H655.788V25.8741H671.093L673.464 43.5502C682.661 30.9039 695.236 24.5807 711.187 24.5807ZM709.463 121.368C720.385 121.368 729.151 117.632 735.761 110.159C742.516 102.542 745.893 92.7701 745.893 80.8423C745.893 68.9146 742.516 59.2143 735.761 51.7415C729.151 44.125 720.385 40.3168 709.463 40.3168C702.421 40.3168 696.098 42.0412 690.493 45.4902C685.032 48.7955 680.793 53.5379 677.775 59.7173C674.757 65.753 673.248 72.651 673.248 80.4112C673.248 88.3152 674.757 95.4287 677.775 101.752C680.793 107.931 685.032 112.745 690.493 116.194C696.098 119.643 702.421 121.368 709.463 121.368Z" fill="#2B2B2B"></path><defs><linearGradient id="paint0_linear_641_567" x1="128.135" y1="124.008" x2="252.623" y2="22.612" gradientUnits="userSpaceOnUse"><stop stop-color="#01A4FF"></stop><stop offset="0.791667" stop-color="#01FFC2"></stop></linearGradient></defs></svg> 